# xmcd CD database file
#
# Track frame offsets:
#	150
#	22886
#	43465
#	61567
#	85414
#	112178
#	132837
#	149672
#	175584
#	195406
#	215355
#	228716
#	243063
#	252842
#	266136
#	285065
#	304326
#	312250
#	329189
#
# Disc length: 4606 seconds
#
# Revision: 0
# Processed by: cddbd v1.5.2PL0 Copyright (c) Steve Scherf et al.
# Submitted via: CDex 1.51
#
DISCID=1711fc13
DTITLE=Ry Cooder - The Slide Area and Crossroads
DYEAR=1900
DGENRE=Blues
TTITLE0=Ry Cooder - UFO Has Landed In The Ghetto
TTITLE1=Ry Cooder - I Need A Woman
TTITLE2=Ry Cooder - Gypsy Woman
TTITLE3=Ry Cooder - Blue Suede Shoes
TTITLE4=Ry Cooder - Mama, Don't Treat Your Daughter Mean
TTITLE5=Ry Cooder - I'm Drinking Again
TTITLE6=Ry Cooder - Which Came First
TTITLE7=Ry Cooder - That's The Way Love Turned Out For Me
TTITLE8=Ry Cooder - Crossroads
TTITLE9=Ry Cooder - Down In Mississippi
TTITLE10=Ry Cooder - Cotton Needs Pickin'
TTITLE11=Ry Cooder - Viola Lee Blues
TTITLE12=Ry Cooder - See You In Hell, Blind Boy
TTITLE13=Ry Cooder - Nitty Gritty Mississippi
TTITLE14=Ry Cooder - He Made A Woman Out Of Me
TTITLE15=Ry Cooder - Feelin' Bad Blues
TTITLE16=Ry Cooder - Somebody's Callin' My Name
TTITLE17=Ry Cooder - Willie Brown Blues
TTITLE18=Ry Cooder - Walkin' Away Blues
EXTD=
EXTT0=
EXTT1=
EXTT2=
EXTT3=
EXTT4=
EXTT5=
EXTT6=
EXTT7=
EXTT8=
EXTT9=
EXTT10=
EXTT11=
EXTT12=
EXTT13=
EXTT14=
EXTT15=
EXTT16=
EXTT17=
EXTT18=
PLAYORDER=
